<?xml version="1.0" encoding="utf-8"?>
<svg viewBox="147.865 78.916 600.025 157.4" xmlns="http://www.w3.org/2000/svg">
  <path class="st0" d="M 741.965 103.316 C 731.965 93.416 715.865 93.416 705.865 103.316 C 697.965 113.716 697.965 128.216 705.865 138.616 C 715.865 148.416 731.965 148.416 741.965 138.616 C 749.865 128.216 749.865 113.716 741.965 103.316 Z M 732.065 131.816 C 728.165 136.416 721.265 136.916 716.665 133.016 C 716.265 132.616 715.865 132.216 715.465 131.816 C 711.565 125.116 711.565 116.816 715.465 110.016 C 719.365 105.416 726.265 104.916 730.865 108.916 C 731.265 109.316 731.665 109.616 731.965 110.016 C 735.965 116.816 735.965 125.016 732.065 131.816 Z M 640.565 99.216 C 636.265 97.116 631.565 96.116 626.765 96.116 C 620.465 95.416 614.265 97.816 609.865 102.316 C 607.665 105.316 606.465 108.816 606.365 112.416 L 618.265 112.416 C 618.465 110.816 619.065 109.316 619.965 108.116 C 621.665 106.516 623.865 105.716 626.165 105.916 C 628.265 105.816 630.265 106.216 632.165 107.016 C 633.565 107.816 634.365 109.416 634.165 111.016 C 634.165 112.616 633.065 114.116 631.465 114.516 C 629.965 115.116 628.365 115.416 626.765 115.616 L 622.565 116.116 C 618.765 116.416 615.065 117.516 611.665 119.216 C 607.165 121.716 604.565 126.616 604.865 131.816 C 604.665 135.716 606.165 139.516 609.065 142.216 C 612.065 144.616 615.865 145.916 619.765 145.916 C 646.665 147.116 646.365 131.816 646.565 128.516 L 646.565 110.816 C 647.265 106.116 644.865 101.416 640.565 99.216 Z M 634.365 126.016 C 634.665 129.216 633.365 132.416 630.865 134.516 C 628.665 136.016 626.065 136.816 623.465 136.816 C 621.865 136.816 620.365 136.316 619.165 135.416 C 617.865 134.216 617.165 132.516 617.365 130.716 C 617.265 128.616 618.365 126.516 620.265 125.516 C 622.065 124.616 623.965 124.116 625.965 123.816 L 628.765 123.316 C 629.865 123.116 630.965 122.816 632.065 122.516 C 632.865 122.216 633.665 121.816 634.465 121.316 L 634.365 126.016 Z M 579.265 106.616 C 581.865 106.416 584.365 107.516 586.065 109.516 C 587.065 110.916 587.665 112.516 587.965 114.216 L 601.265 114.216 C 601.165 108.716 598.565 103.516 594.265 100.116 C 589.665 97.316 584.365 95.916 578.965 96.216 C 572.565 95.816 566.265 98.316 561.765 102.916 C 557.365 108.116 555.065 114.816 555.565 121.716 C 555.265 128.016 557.265 134.216 561.165 139.116 C 565.665 143.916 572.165 146.416 578.765 145.816 C 585.765 146.316 592.465 143.216 596.865 137.716 C 599.265 134.716 600.765 131.016 601.165 127.116 L 587.865 127.116 C 587.665 129.316 586.865 131.416 585.565 133.216 C 583.865 134.916 581.465 135.816 579.065 135.516 C 575.165 135.716 571.565 133.316 570.365 129.616 C 569.465 126.916 568.965 124.116 569.065 121.316 C 568.965 118.416 569.365 115.416 570.365 112.616 C 571.565 108.916 575.265 106.416 579.265 106.616 Z M 551.765 96.316 C 524.465 96.316 526.165 120.416 526.165 120.416 L 526.165 144.916 L 538.565 144.916 L 538.565 121.916 C 538.365 119.016 538.865 116.216 539.965 113.516 C 542.065 110.116 545.965 108.316 549.965 108.816 L 551.465 108.816 L 553.565 108.816 L 553.565 96.216 L 552.465 96.216 L 551.765 96.316 Z M 506.465 132.116 C 505.965 132.816 505.465 133.416 504.765 134.016 C 502.765 135.416 500.265 136.116 497.865 135.916 C 495.565 136.016 493.265 135.516 491.265 134.316 C 487.965 132.116 486.065 128.416 486.265 124.516 L 520.465 124.516 C 520.565 121.416 520.465 118.216 520.065 115.116 C 519.565 111.616 518.265 108.316 516.265 105.416 C 514.265 102.416 511.465 99.916 508.165 98.516 C 504.665 97.016 500.965 96.216 497.165 96.316 C 490.865 96.116 484.865 98.416 480.365 102.816 C 475.765 107.916 473.365 114.716 473.865 121.616 C 473.265 128.616 475.865 135.616 481.065 140.416 C 485.765 144.216 491.565 146.316 497.665 146.216 C 504.265 146.616 510.765 144.116 515.365 139.316 C 517.365 137.316 518.865 134.916 519.665 132.216 L 506.465 132.116 Z M 489.865 109.016 C 491.865 107.116 494.465 106.216 497.165 106.316 C 499.865 106.216 502.365 107.116 504.465 108.816 C 506.565 110.716 507.765 113.416 507.765 116.216 L 486.565 116.216 C 486.865 113.616 488.065 111.116 489.865 109.016 Z M 468.965 144.916 L 457.865 144.916 L 457.865 116.416 C 458.365 112.016 455.165 108.116 450.865 107.716 C 450.465 107.716 449.965 107.616 449.565 107.716 C 444.965 107.616 441.165 111.216 440.965 115.816 C 440.965 116.016 440.965 116.316 440.965 116.516 L 440.965 144.916 L 429.665 144.916 L 429.665 116.416 C 430.165 112.116 427.065 108.216 422.765 107.716 C 422.365 107.716 421.865 107.616 421.465 107.716 C 416.865 107.516 413.065 111.116 412.865 115.616 C 412.865 115.916 412.865 116.216 412.865 116.516 L 412.865 144.916 L 401.465 144.916 L 401.465 116.716 C 400.765 106.016 408.865 96.816 419.565 96.116 C 420.165 96.116 420.765 96.116 421.265 96.116 C 426.765 96.016 431.965 98.416 435.365 102.716 C 438.865 98.516 443.965 96.116 449.465 96.116 C 461.765 96.116 469.065 104.616 469.065 116.716 L 469.065 144.916 L 468.965 144.916 L 468.965 144.916 Z M 696.165 81.616 C 696.165 81.616 683.765 80.316 683.765 90.316 L 683.765 103.516 C 682.465 101.316 680.565 99.516 678.365 98.316 C 676.065 97.016 673.465 96.416 670.765 96.416 C 665.065 96.216 659.565 98.816 655.965 103.316 C 651.965 108.916 650.065 115.716 650.465 122.516 C 650.165 128.716 652.165 134.816 656.065 139.616 C 660.865 144.116 667.165 146.416 673.665 146.016 C 696.465 146.016 696.165 126.516 696.165 126.516 L 696.165 81.616 Z M 681.365 132.116 C 679.565 134.716 676.565 136.216 673.465 136.016 C 670.365 136.216 667.365 134.716 665.665 132.116 C 663.765 128.816 662.865 125.116 663.065 121.416 C 662.965 117.916 663.865 114.416 665.565 111.316 C 667.265 108.616 670.265 107.016 673.465 107.216 C 675.765 107.216 677.965 108.016 679.665 109.516 C 682.865 112.916 684.465 117.516 684.065 122.216 C 684.165 125.716 683.265 129.116 681.365 132.016 L 681.365 132.116 Z M 413.965 223.416 C 413.965 225.016 413.365 226.616 412.165 227.716 C 411.065 228.916 409.465 229.516 407.765 229.516 L 401.565 229.516 L 401.565 186.516 C 401.065 179.916 403.865 173.516 409.065 169.416 C 413.765 166.016 419.465 164.316 425.265 164.716 C 431.365 164.616 437.265 167.016 441.465 171.416 C 445.565 176.416 447.565 182.816 447.265 189.316 C 447.565 195.816 445.665 202.316 441.865 207.616 C 438.565 212.016 433.265 214.516 427.765 214.416 C 425.065 214.516 422.265 213.916 419.765 212.816 C 417.265 211.616 415.265 209.616 413.965 207.216 L 413.965 223.316 L 413.965 223.416 Z M 434.665 189.916 C 434.865 186.116 433.965 182.416 431.965 179.216 C 430.165 176.716 427.165 175.316 424.165 175.416 C 421.165 175.316 418.265 176.716 416.465 179.216 C 414.565 182.416 413.665 186.216 413.965 189.916 C 413.665 193.516 414.665 197.116 416.665 200.116 C 418.465 202.616 421.465 204.016 424.465 203.916 C 427.465 204.016 430.265 202.616 431.965 200.116 C 433.965 197.116 434.865 193.516 434.665 189.916 M 529.165 210.516 L 529.165 207.416 C 527.265 210.616 524.165 212.916 520.565 213.716 C 516.965 214.516 513.165 214.216 509.765 212.816 C 505.865 211.216 502.565 208.416 500.365 204.816 C 497.565 200.216 496.265 194.816 496.565 189.516 C 496.265 183.116 498.065 176.816 501.665 171.516 C 505.665 166.716 511.765 164.216 517.965 164.616 C 523.665 164.116 529.365 165.816 533.865 169.316 C 538.965 173.516 541.765 179.916 541.165 186.516 L 541.165 211.816 C 541.565 223.516 532.365 233.216 520.765 233.616 C 519.865 233.616 518.865 233.616 517.965 233.516 C 508.365 233.816 499.965 227.416 497.565 218.116 L 510.565 218.116 C 512.665 221.616 516.765 223.516 520.865 222.816 C 522.965 222.316 524.865 221.016 526.265 219.316 C 528.065 216.816 529.065 213.816 529.065 210.716 M 508.565 190.016 C 508.565 198.316 510.965 202.816 515.665 203.716 C 519.565 204.916 523.665 203.616 526.165 200.416 C 527.465 198.616 528.265 196.416 528.465 194.216 C 528.865 191.416 528.865 188.616 528.465 185.816 C 528.065 183.116 527.065 180.616 525.465 178.416 C 523.865 176.216 521.365 175.016 518.665 175.216 C 515.165 174.916 511.965 176.816 510.465 179.916 C 508.965 183.116 508.265 186.616 508.265 190.116 M 486.065 168.016 C 481.765 165.916 477.065 164.916 472.265 164.916 C 465.965 164.216 459.765 166.616 455.365 171.116 C 453.165 174.116 451.965 177.616 451.865 181.316 L 463.865 181.316 C 464.065 179.716 464.665 178.216 465.565 177.016 C 467.265 175.416 469.465 174.616 471.765 174.816 C 473.865 174.716 475.865 175.116 477.765 175.916 C 479.165 176.716 479.965 178.316 479.765 179.916 C 479.765 181.516 478.665 183.016 477.065 183.416 C 475.565 184.016 473.965 184.316 472.365 184.516 L 468.165 185.016 C 464.365 185.316 460.665 186.416 457.265 188.116 C 452.765 190.616 450.165 195.516 450.465 200.716 C 450.265 204.616 451.765 208.416 454.665 211.116 C 457.665 213.516 461.465 214.816 465.365 214.816 C 492.265 216.016 491.965 200.716 492.165 197.416 L 492.165 179.716 C 492.665 175.016 490.265 170.416 486.165 168.116 M 480.065 195.016 C 480.365 198.216 479.065 201.416 476.565 203.516 C 474.365 205.016 471.765 205.816 469.165 205.816 C 467.565 205.816 466.065 205.316 464.865 204.416 C 463.565 203.216 462.865 201.516 463.065 199.716 C 462.965 197.616 464.065 195.516 465.965 194.516 C 467.765 193.616 469.665 193.116 471.665 192.816 L 474.465 192.316 C 475.565 192.116 476.665 191.816 477.765 191.516 C 478.565 191.216 479.365 190.816 480.165 190.316 L 480.065 195.016 Z M 588.065 172.016 C 578.065 162.116 561.965 162.116 551.965 172.016 C 544.065 182.416 544.065 196.916 551.965 207.316 C 562.065 217.116 577.965 217.116 588.065 207.316 C 595.965 196.816 595.965 182.416 588.065 172.016 M 578.265 200.516 C 574.365 205.116 567.465 205.616 562.865 201.716 C 562.465 201.316 562.065 200.916 561.665 200.516 C 557.765 193.816 557.765 185.516 561.665 178.816 C 565.565 174.216 572.465 173.716 577.065 177.616 C 577.465 178.016 577.865 178.416 578.265 178.816 C 582.065 185.516 582.065 193.716 578.265 200.516" style="fill: rgb(10, 0, 128);"/>
  <path class="st1" d="M 365.565 158.316 C 365.565 197.916 317.265 230.016 257.765 230.016 C 198.265 230.016 149.965 197.916 149.965 158.316 C 149.965 118.716 198.265 86.516 257.765 86.516 C 317.265 86.616 365.565 118.716 365.565 158.316 Z M 365.565 158.316" style="fill: rgb(0, 188, 255);"/>
  <path class="st2" d="M 363.465 155.216 C 333.965 150.416 297.165 166.216 292.765 167.916 L 290.365 168.916 L 291.365 166.516 C 293.065 161.716 294.065 148.316 293.465 138.416 C 292.765 128.416 296.565 118.816 298.265 114.416 L 298.565 113.416 C 299.965 109.616 301.665 109.616 303.665 110.016 C 304.365 110.016 305.065 110.416 305.765 110.416 C 308.865 110.416 312.665 109.016 315.365 107.616 C 316.765 106.916 318.065 106.216 319.765 106.216 C 320.765 105.916 321.865 105.916 322.565 105.516 C 323.565 105.216 324.665 104.816 325.665 104.816 C 329.465 104.516 332.165 103.816 332.165 101.016 C 332.165 100.716 332.165 100.016 331.465 99.616 C 330.765 99.316 329.765 98.916 326.665 99.616 L 326.365 99.616 C 324.965 100.016 321.865 100.616 324.665 98.216 C 324.665 97.816 324.965 97.816 324.965 97.816 C 325.965 97.116 327.065 95.416 327.765 94.416 C 328.065 94.116 328.465 93.416 328.065 92.716 C 327.765 90.616 324.665 88.616 321.165 86.516 C 320.465 86.216 319.765 85.516 319.065 85.116 C 317.365 83.716 313.265 80.616 311.465 82.316 C 309.065 84.416 299.765 93.316 294.265 99.516 C 289.265 105.216 285.165 111.616 281.865 118.416 L 280.465 121.516 C 277.365 128.416 272.565 139.016 267.765 150.316 L 265.665 155.416 C 265.365 156.116 265.365 156.416 264.965 157.116 C 260.865 166.416 255.365 178.016 259.165 184.216 C 260.865 186.916 264.265 188.716 269.465 189.016 C 301.365 191.716 309.265 191.116 327.865 188.616 C 331.265 188.316 334.365 187.616 337.865 186.916 C 339.265 186.616 340.565 186.216 341.965 186.216 C 342.965 186.216 343.665 186.216 344.765 186.516 C 346.465 187.216 347.165 188.216 347.865 189.616 L 348.565 190.616 L 349.565 189.616 C 355.365 183.116 359.465 175.916 361.965 168.316 C 362.965 163.816 363.365 159.416 363.665 157.316 L 363.665 154.916 L 363.465 154.916 L 363.465 155.216 Z M 247.065 155.216 C 246.365 153.516 245.365 151.816 244.965 150.116 C 240.165 138.416 235.365 127.816 232.265 120.916 L 230.865 118.116 C 227.065 110.216 223.365 104.016 218.465 99.216 C 212.965 93.416 203.765 84.116 201.265 82.016 C 199.165 80.316 195.065 83.716 193.765 84.816 C 193.065 85.116 192.365 85.816 191.665 86.216 C 188.265 88.316 185.165 90.316 184.765 92.416 C 184.765 93.116 184.765 93.816 185.065 94.116 C 185.365 94.816 186.065 95.816 186.765 96.516 C 187.065 96.816 187.465 96.816 187.765 97.216 L 188.165 97.216 C 190.865 99.616 190.565 100.316 190.265 100.016 C 188.865 99.316 187.865 99.016 186.865 99.016 L 186.565 99.016 C 183.165 98.316 182.065 98.716 181.465 99.016 C 180.765 99.316 180.765 100.016 180.765 100.416 C 180.765 103.116 183.865 103.816 187.665 104.216 C 188.665 104.216 189.765 104.516 190.765 104.916 C 191.765 105.316 192.465 105.616 193.565 105.616 C 194.965 105.916 196.665 106.316 197.965 107.016 C 200.765 108.416 204.465 110.116 207.565 109.716 C 208.265 109.716 208.965 109.716 209.665 109.416 C 211.765 109.116 213.465 109.116 214.765 112.816 L 215.065 113.816 C 216.765 118.216 220.565 127.916 219.865 137.816 C 219.165 147.716 220.165 161.116 221.965 165.916 L 222.965 168.316 L 220.565 167.316 C 216.765 165.616 181.465 150.116 152.265 154.916 L 151.565 154.916 L 151.565 160.016 C 152.565 169.616 156.665 179.216 164.265 187.816 L 164.965 188.816 L 165.665 187.816 C 166.365 186.816 167.065 186.416 168.065 185.716 C 170.465 185.016 171.865 185.316 174.965 186.016 C 178.365 186.716 181.865 187.416 184.965 187.716 C 195.265 189.116 202.165 189.816 211.365 189.816 C 219.265 189.816 228.865 189.116 243.265 188.116 C 248.365 187.816 251.865 186.016 253.565 183.316 C 257.365 176.816 252.165 165.516 247.765 155.816 C 247.465 156.216 247.465 155.616 247.065 155.216 Z M 247.065 155.216" style="fill: rgb(255, 255, 255);"/>
  <path class="st0" d="M 346.265 193.016 C 345.565 193.316 345.265 194.016 344.565 194.416 L 344.165 194.716 C 343.465 195.016 343.165 195.716 342.465 196.116 C 341.765 196.816 341.065 197.116 340.365 197.816 C 339.665 198.116 338.965 198.816 338.665 199.216 L 338.365 199.616 C 337.665 199.916 336.965 200.616 336.665 201.016 C 336.665 201.016 336.365 201.016 336.365 201.416 C 335.665 201.716 334.965 202.416 334.265 202.816 C 333.565 203.216 332.865 203.816 332.165 204.216 L 331.865 204.516 L 329.765 205.516 C 329.765 205.516 329.465 205.516 329.465 205.816 C 327.765 206.816 326.365 207.516 324.665 208.616 C 324.365 208.616 324.365 208.916 324.365 208.916 L 322.265 209.916 C 321.865 209.916 321.865 210.216 321.865 210.216 C 320.165 210.916 318.465 211.916 316.765 212.616 C 316.465 212.616 316.465 212.916 316.065 212.916 C 315.365 213.316 314.665 213.616 313.965 213.616 C 313.665 213.616 313.665 213.916 313.265 213.916 C 312.565 214.216 311.565 214.616 310.565 214.916 C 309.565 215.216 308.865 215.616 307.765 215.916 C 307.465 215.916 307.465 215.916 307.065 216.216 C 306.365 216.616 305.665 216.616 304.965 216.916 C 304.565 216.916 304.565 217.216 304.265 217.216 C 303.565 217.516 302.565 217.516 301.865 217.916 L 301.565 217.916 C 300.565 218.316 299.865 218.616 298.765 218.616 C 298.465 218.616 298.465 218.616 298.065 218.916 C 297.365 219.216 296.665 219.216 295.665 219.616 C 295.365 219.616 294.965 219.616 294.965 220.016 C 294.265 220.316 293.265 220.316 292.565 220.716 L 291.865 220.716 C 290.865 221.016 289.765 221.016 288.765 221.416 L 288.065 221.416 C 287.365 221.816 286.365 221.816 285.665 221.816 C 285.365 221.816 284.965 221.816 284.665 222.116 C 283.965 222.116 282.965 222.416 282.265 222.416 L 281.565 222.416 C 280.565 222.716 279.465 222.716 278.465 222.716 L 277.765 222.716 C 277.065 222.716 276.065 223.016 274.965 223.016 L 273.965 223.016 C 273.265 223.016 272.265 223.416 271.565 223.416 L 270.565 223.416 C 269.565 223.416 268.465 223.716 267.465 223.716 L 248.965 223.716 C 247.965 223.716 246.865 223.716 245.865 223.416 L 245.565 223.416 C 244.565 223.416 243.465 223.416 242.465 223.016 L 241.465 223.016 C 240.765 223.016 239.765 223.016 239.065 222.716 L 238.065 222.716 C 237.065 222.716 235.965 222.416 234.965 222.416 L 234.665 222.416 C 233.665 222.416 232.965 222.116 231.865 222.116 L 230.865 222.116 C 230.165 222.116 229.165 221.816 228.465 221.816 L 227.865 221.816 C 226.865 221.416 225.765 221.416 224.765 221.116 L 224.465 221.116 C 223.765 220.816 222.765 220.816 222.065 220.416 C 221.765 220.416 221.365 220.416 221.065 220.116 C 220.365 219.716 219.665 219.716 218.965 219.416 C 218.665 219.416 218.665 219.416 218.265 219.116 C 217.265 218.816 216.165 218.816 215.465 218.416 L 214.765 218.416 C 214.065 218.016 213.065 218.016 212.365 217.716 C 211.965 217.716 211.665 217.416 211.665 217.416 C 210.965 217.116 210.265 217.116 209.565 216.716 C 209.265 216.716 209.265 216.716 208.865 216.316 C 207.865 216.016 207.165 215.616 206.065 215.316 C 205.765 215.316 205.765 215.316 205.365 215.016 C 204.665 214.616 203.965 214.316 203.265 214.316 C 202.965 214.316 202.565 214.016 202.565 214.016 C 201.865 213.716 201.165 213.316 200.465 213.316 C 200.165 213.316 200.165 213.316 199.765 212.916 C 199.065 212.616 198.065 212.216 197.065 211.916 C 196.765 211.916 196.765 211.616 196.365 211.616 L 194.265 210.616 C 193.965 210.616 193.965 210.316 193.565 210.316 L 191.465 209.316 C 191.465 209.316 191.065 209.316 191.065 209.016 C 190.365 208.716 189.365 208.316 188.665 207.616 C 188.365 207.616 188.365 207.316 187.965 207.316 C 187.265 207.016 186.565 206.616 186.265 206.316 C 185.865 206.316 185.865 206.016 185.565 206.016 L 183.465 205.016 C 183.465 205.016 183.165 205.016 183.165 204.616 C 182.465 204.316 181.765 203.616 181.065 203.216 C 180.665 203.216 180.665 202.816 180.365 202.816 C 179.665 202.516 179.365 202.116 178.665 201.816 C 178.365 201.816 178.365 201.516 177.965 201.516 C 177.265 201.116 176.565 200.816 176.265 200.116 C 176.265 200.116 175.965 200.116 175.965 199.816 C 175.265 199.416 174.565 198.816 173.865 198.416 C 173.565 198.416 173.565 198.116 173.565 198.116 C 173.265 197.716 172.565 197.416 172.165 196.716 C 171.865 196.716 171.865 196.416 171.465 196.416 C 170.765 196.016 170.465 195.416 169.765 195.016 C 169.065 194.316 168.365 194.016 168.065 193.316 C 167.765 193.316 167.765 193.016 167.765 193.016 L 166.065 191.316 L 165.765 190.916 C 166.465 189.916 166.765 189.516 167.165 189.216 C 168.565 188.516 169.265 188.916 172.265 189.616 C 175.665 190.316 179.165 191.016 182.565 191.316 C 201.065 193.716 209.365 194.416 241.665 191.616 C 247.865 190.916 251.965 188.816 254.065 185.116 C 254.365 184.816 254.365 184.416 254.765 183.716 C 255.165 184.016 255.165 184.416 255.465 185.116 C 257.565 188.916 261.965 190.916 267.865 191.616 C 300.165 194.316 308.365 193.716 326.865 191.316 C 330.265 190.916 333.765 190.316 337.165 189.616 C 340.265 188.916 340.965 188.916 342.265 189.216 C 342.965 189.616 343.265 189.916 344.365 192.016 C 346.665 192.616 346.665 192.616 346.265 193.016 C 346.265 192.616 346.265 192.616 346.265 193.016 Z M 349.065 122.616 L 349.765 123.316 C 350.465 124.016 350.765 124.716 351.465 125.416 C 351.765 125.816 351.765 125.816 351.765 126.116 C 352.065 126.416 352.465 126.816 352.465 127.116 C 352.765 127.516 352.765 127.516 352.765 127.816 C 353.165 128.116 353.465 128.516 353.465 128.816 C 353.765 129.216 353.765 129.216 353.765 129.516 C 354.465 130.916 355.465 131.916 356.165 133.316 C 356.165 133.616 356.565 133.616 356.565 134.016 C 356.865 134.416 356.865 134.716 357.265 135.016 C 357.265 135.316 357.565 135.316 357.565 135.716 C 357.865 136.116 357.865 136.416 358.265 136.716 C 358.265 137.016 358.565 137.016 358.565 137.416 C 358.865 138.116 359.265 139.116 359.565 139.816 C 359.565 140.116 359.565 140.116 359.965 140.116 C 359.965 140.416 360.265 140.816 360.265 141.116 C 360.265 141.416 360.565 141.816 360.565 141.816 C 360.565 142.116 360.865 142.516 360.865 142.816 C 360.865 143.116 361.165 143.516 361.165 143.516 C 361.165 143.816 361.565 144.216 361.565 144.516 C 361.565 144.816 361.565 145.216 361.865 145.216 C 362.165 145.916 362.165 146.616 362.165 147.316 C 362.165 147.616 362.165 148.016 362.465 148.016 C 362.465 148.316 362.465 148.716 362.765 149.016 L 362.765 151.116 C 353.165 149.716 338.065 149.716 316.465 155.616 C 308.965 158.716 302.065 160.716 294.865 163.816 C 296.265 156.916 296.565 146.316 295.865 138.416 C 295.165 129.516 298.665 120.616 300.665 115.716 L 300.965 114.716 C 301.365 114.016 301.365 113.316 301.965 113.016 L 302.965 113.016 C 303.665 113.016 304.665 113.316 305.365 113.316 C 309.865 113.716 314.965 110.916 316.365 110.216 C 317.365 109.516 318.765 109.216 320.165 108.816 C 321.165 108.516 322.265 108.116 323.565 107.816 C 324.265 107.516 324.965 107.516 325.965 107.516 C 326.965 107.516 328.365 107.216 329.765 106.816 C 337.365 111.616 343.865 116.816 349.065 122.616 Z M 312.665 82.816 C 313.665 82.116 316.065 83.116 319.165 85.516 C 319.865 86.216 320.565 86.516 321.265 86.916 C 323.365 88.316 327.465 90.716 327.765 92.416 C 327.765 92.716 327.765 93.116 327.465 93.416 L 327.465 93.716 C 326.765 94.716 325.765 96.516 325.065 96.816 L 324.365 97.516 C 322.965 98.916 320.965 100.316 320.265 100.316 C 318.165 100.016 316.865 99.616 315.165 98.916 C 316.165 94.816 317.565 95.816 320.265 97.216 C 320.265 96.516 319.965 96.216 319.965 95.516 L 322.065 94.516 L 319.665 94.216 C 319.365 92.516 319.365 91.116 319.365 89.416 C 318.665 90.416 318.665 91.516 318.365 92.216 C 318.065 92.916 317.365 93.616 316.965 93.916 L 315.565 92.516 C 314.865 91.816 313.865 91.116 313.165 90.816 C 313.165 91.116 312.865 91.116 312.865 91.116 C 315.265 94.516 315.265 95.216 312.565 98.316 C 310.165 101.016 307.765 103.116 305.365 105.516 C 307.065 106.516 309.165 105.816 311.565 103.416 C 314.665 100.016 314.665 100.016 318.765 101.716 L 319.465 102.016 C 321.165 102.716 322.165 101.716 323.865 101.016 C 324.865 100.716 326.265 100.016 327.265 100.016 L 327.665 100.016 C 330.065 99.616 331.465 99.616 331.765 100.016 C 331.765 100.016 332.065 100.316 332.065 100.716 C 332.065 102.416 330.665 103.116 326.265 103.516 C 325.265 103.516 324.165 103.816 322.865 104.216 C 321.865 104.516 321.165 104.916 320.065 104.916 C 318.365 105.316 316.965 105.616 315.665 106.616 C 312.865 108.016 309.465 109.416 306.765 109.416 C 306.065 109.416 305.365 109.416 305.065 109.116 C 302.665 108.816 300.665 108.816 298.865 113.216 L 298.565 114.216 C 296.865 119.016 293.065 128.616 293.465 138.616 C 294.165 148.616 293.065 162.016 291.365 166.416 L 288.965 170.916 L 293.465 168.816 C 293.765 168.416 332.965 151.316 363.465 156.116 L 363.465 157.516 C 363.165 160.316 362.765 164.416 361.765 168.516 C 359.665 176.116 355.565 183.316 349.765 189.516 C 349.065 187.816 348.065 186.716 345.965 186.116 C 344.965 185.716 343.865 185.416 342.865 185.416 C 341.465 185.416 339.765 185.716 338.465 186.116 C 335.065 186.816 331.965 187.516 328.465 187.816 C 310.265 190.216 302.065 190.916 270.065 188.116 C 265.265 187.816 262.165 186.016 260.465 183.616 C 257.065 177.816 262.165 166.416 266.265 157.216 C 267.265 154.816 268.365 152.416 269.365 150.316 C 274.465 137.616 279.665 126.316 282.765 119.716 L 283.465 118.316 C 287.265 110.416 290.965 104.616 295.465 99.416 C 300.965 93.816 310.265 84.816 312.665 82.816 Z M 257.765 89.016 C 271.465 89.016 284.565 90.716 296.165 93.816 C 294.765 95.216 293.765 96.216 292.765 97.616 C 287.465 103.516 283.165 110.216 280.065 117.516 L 279.365 118.916 C 276.265 125.816 270.765 137.116 265.965 149.816 C 265.265 151.916 264.265 153.916 263.165 156.316 C 260.765 161.416 258.365 167.016 256.965 172.416 C 255.565 166.916 252.865 161.416 250.765 156.316 L 247.965 149.816 C 242.865 137.116 237.665 125.816 234.565 118.916 L 233.865 117.516 C 230.065 109.316 225.965 103.116 221.165 97.616 C 220.165 96.616 219.065 95.516 218.065 94.216 C 229.965 90.716 243.265 89.016 257.765 89.016 Z M 182.165 100.316 C 182.465 100.016 184.265 100.016 186.265 100.316 L 186.965 100.316 L 190.065 101.316 C 191.765 102.316 192.765 103.016 194.465 102.316 C 194.765 102.316 195.165 102.016 195.165 102.016 C 199.265 100.616 199.265 100.616 202.365 103.716 C 204.765 106.416 206.765 106.816 208.565 105.816 C 206.165 103.416 203.465 101.016 201.365 98.616 C 198.665 95.516 198.665 94.516 201.065 91.416 C 201.065 91.016 200.765 91.016 200.765 91.016 C 200.065 91.716 199.065 92.016 198.365 92.716 L 196.965 94.116 C 196.265 93.416 195.565 93.116 195.565 92.416 C 195.265 91.716 195.265 90.716 194.565 89.716 C 194.565 91.116 194.265 92.816 194.265 94.516 L 191.865 95.216 L 193.965 96.216 L 193.665 97.616 C 196.065 95.916 197.765 94.916 198.765 99.316 C 197.065 100.016 195.365 100.016 193.665 100.716 C 192.965 101.016 190.865 99.316 189.165 97.916 C 189.165 97.616 188.865 97.616 188.865 97.616 L 187.865 96.616 C 187.165 95.916 186.865 94.916 186.465 94.516 L 186.465 94.216 C 186.165 93.916 186.165 93.516 186.165 93.216 C 186.465 91.516 190.665 88.716 192.665 87.716 C 193.365 87.416 194.065 86.716 194.765 86.316 C 197.565 83.916 200.265 82.516 201.265 83.516 C 203.665 85.616 212.565 94.516 218.465 100.316 C 222.965 105.116 226.665 111.316 230.465 119.216 L 231.165 120.616 C 234.265 127.516 239.765 138.816 244.565 151.116 C 245.265 153.216 246.265 155.616 247.665 158.016 C 251.765 167.316 256.965 178.616 253.465 184.416 C 252.065 187.116 248.665 188.516 243.865 188.916 C 211.965 191.716 204.065 191.016 185.465 188.616 C 182.065 188.316 178.965 187.616 175.465 186.916 C 172.365 186.216 170.665 185.916 167.965 186.616 C 166.565 186.916 165.865 188.016 165.165 189.016 C 158.265 180.816 153.865 171.516 152.765 161.516 L 152.765 157.016 C 183.365 151.916 220.365 169.016 220.765 169.416 L 225.265 171.516 L 223.565 167.016 C 221.865 162.516 220.765 149.116 221.465 139.216 C 222.165 129.316 218.365 119.616 216.365 114.816 L 216.065 113.816 C 214.365 109.316 212.265 109.316 209.865 109.716 C 209.165 109.716 208.465 110.016 208.165 110.016 C 205.365 110.016 201.665 108.616 199.265 107.316 C 197.865 106.616 196.165 105.916 194.765 105.616 C 193.765 105.316 193.065 105.316 192.065 104.916 C 191.065 104.616 189.965 104.216 188.665 104.216 C 184.165 103.516 182.865 102.816 182.865 101.416 C 181.865 100.616 181.865 100.316 182.165 100.316 Z M 184.965 107.116 C 185.665 107.416 186.665 107.416 187.365 107.416 C 188.065 107.416 189.065 107.716 189.765 107.716 C 190.765 108.016 191.865 108.416 193.165 108.716 C 194.565 109.016 195.565 109.416 196.965 110.116 C 198.365 110.816 203.465 113.516 207.965 113.216 C 208.665 113.216 209.665 113.216 210.365 112.916 L 211.365 112.916 C 211.365 112.916 211.665 113.216 212.365 114.616 L 212.665 115.616 C 214.365 120.416 218.165 129.316 217.465 138.316 C 216.765 146.216 217.065 156.816 218.465 163.716 C 208.165 159.216 178.665 148.616 152.565 152.716 C 152.865 150.016 153.265 147.616 153.965 144.816 L 153.965 144.516 C 153.965 144.116 154.265 143.816 154.265 143.516 C 154.265 143.216 154.565 142.816 154.565 142.516 L 154.565 142.216 C 155.265 140.116 156.265 137.816 157.365 135.716 C 157.365 135.716 157.365 135.416 157.665 135.416 C 157.665 135.416 157.665 135.116 157.965 135.116 C 158.265 134.816 158.265 134.416 158.665 134.116 C 163.665 123.616 172.965 114.716 184.965 107.116 Z M 334.265 104.716 C 334.965 103.716 335.665 102.616 335.665 101.316 C 335.665 99.916 334.965 98.616 333.965 97.516 C 332.965 96.816 331.865 96.516 330.565 96.516 C 330.565 96.516 330.565 96.116 330.965 96.116 C 331.665 95.116 331.965 93.716 331.665 92.316 C 330.965 88.916 326.565 86.116 323.465 84.116 C 322.765 83.816 322.065 83.416 321.765 83.116 C 315.565 78.016 312.165 78.616 310.465 80.016 C 308.765 81.416 304.665 85.516 300.165 90.016 C 287.065 86.616 272.665 84.516 257.965 84.516 C 242.565 84.516 227.765 86.616 214.365 90.316 C 209.865 85.816 205.465 81.716 203.665 80.016 C 201.965 78.616 198.165 77.616 192.365 83.116 C 192.065 83.416 191.365 83.816 190.665 84.116 C 187.565 85.816 183.065 88.616 182.465 92.316 C 182.165 93.716 182.465 95.116 183.165 96.116 C 183.165 96.116 183.165 96.516 183.565 96.516 C 182.165 96.516 181.165 96.816 180.165 97.516 C 179.165 98.516 178.465 99.616 178.465 101.316 C 178.465 103.416 179.165 104.416 180.165 105.416 C 160.265 118.116 147.865 136.316 147.865 155.916 L 147.865 160.416 C 147.865 202.316 190.765 236.316 257.765 236.316 C 325.065 236.316 367.665 202.316 367.665 160.416 L 367.665 156.316 C 367.565 136.016 354.865 117.816 334.265 104.716 Z M 334.265 104.716" style="fill: rgb(10, 0, 128);"/>
</svg>